<svg viewBox="0 0 304 192" xmlns="http://www.w3.org/2000/svg" shape-rendering="crispEdges">
<rect x="32" y="40" width="40" height="40" fill="#000000"/>
<rect x="40" y="48" width="24" height="24" fill="#FFFFFF"/>
<rect x="24" y="64" width="56" height="56" fill="#000000"/>
<rect x="32" y="72" width="40" height="40" fill="#FF6B00"/>
<rect x="64" y="56" width="24" height="32" fill="#000000"/>
<rect x="72" y="64" width="8" height="16" fill="#FFFFFF"/>
<rect x="80" y="56" width="8" height="8" fill="#FFFFFF"/>
<rect x="16" y="72" width="24" height="32" fill="#000000"/>
<rect x="24" y="80" width="8" height="16" fill="#FFFFFF"/>
<rect x="24" y="104" width="56" height="32" fill="#000000"/>
<rect x="32" y="112" width="40" height="16" fill="#FF6B00"/>
<rect x="16" y="120" width="32" height="48" fill="#000000"/>
<rect x="24" y="128" width="16" height="32" fill="#FFFFFF"/>
<rect x="56" y="120" width="32" height="56" fill="#000000"/>
<rect x="64" y="128" width="16" height="40" fill="#FFFFFF"/>
<rect x="24" y="160" width="16" height="8" fill="#000000"/>
<rect x="64" y="168" width="16" height="8" fill="#000000"/>
<rect x="216" y="8" width="64" height="64" fill="#000000"/>
<rect x="224" y="16" width="48" height="48" fill="#FFFFFF"/>
<rect x="168" y="64" width="72" height="32" fill="#000000"/>
<rect x="176" y="72" width="56" height="16" fill="#FF6B00"/>
<rect x="184" y="88" width="40" height="8" fill="#C9C9C9"/>
<rect x="192" y="96" width="24" height="8" fill="#C9C9C9"/>
<rect x="192" y="104" width="24" height="8" fill="#C9C9C9"/>
<rect x="200" y="112" width="8" height="8" fill="#C9C9C9"/>
<rect x="128" y="32" width="8" height="8" fill="#FF6B00"><animate attributeName="opacity" values="0;0;0.7;0;0" keyTimes="0;0.119;0.169;0.219;1" dur="1.6s" repeatCount="indefinite"/></rect>
<rect x="152" y="48" width="8" height="8" fill="#FF6B00"><animate attributeName="opacity" values="0;0;0.7;0;0" keyTimes="0;0.375;0.425;0.475;1" dur="1.6s" repeatCount="indefinite"/></rect>
<rect x="160" y="64" width="8" height="8" fill="#FF6B00"><animate attributeName="opacity" values="0;0;0.7;0;0" keyTimes="0;0.631;0.681;0.731;1" dur="1.6s" repeatCount="indefinite"/></rect>
<g>
<animateMotion dur="1.6s" repeatCount="indefinite" calcMode="linear" keyTimes="0;0.85;1" keyPoints="0;1;1" path="M0,0 Q46,-24 92,48"/>
<animate attributeName="opacity" values="1;1;0;0" keyTimes="0;0.85;0.86;1" dur="1.6s" repeatCount="indefinite"/>
<rect x="96" y="16" width="32" height="32" fill="#000000"/>
<rect x="104" y="24" width="16" height="16" fill="#FF6B00"/>
<rect x="112" y="24" width="8" height="8" fill="#CC5500"/>
</g>
</svg>